<svg xmlns="http://www.w3.org/2000/svg" viewBox="0 0 982 400" font-family="-apple-system, BlinkMacSystemFont, 'SF Pro Text', sans-serif" font-size="11" fill="#1c1c1e"><rect width="982" height="400" fill="#ffffff"/><text x="70" y="32" font-size="20" font-weight="700">End-to-end `hf download` wallclock  ·  pulsys vs DingoSpeed</text><text x="70" y="54" font-size="11" fill="#6e6e73">768 MiB synthetic model · hf download --max-workers 8 · bar = median wallclock seconds across rounds</text><text x="70" y="72" font-size="10" fill="#6e6e73">Lower is better.  Direct = no proxy in the path.</text><text x="280" y="84" text-anchor="middle" font-size="11" font-weight="600">upstream = loopback</text><line x1="120" x2="482" y1="280" y2="280" stroke="#e5e5ea" stroke-width="1"/><text x="116" y="283" text-anchor="end" font-size="9" fill="#6e6e73">0.0s</text><line x1="120" x2="482" y1="244" y2="244" stroke="#e5e5ea" stroke-width="1"/><text x="116" y="247" text-anchor="end" font-size="9" fill="#6e6e73">5.0s</text><line x1="120" x2="482" y1="208" y2="208" stroke="#e5e5ea" stroke-width="1"/><text x="116" y="211" text-anchor="end" font-size="9" fill="#6e6e73">10.0s</text><line x1="120" x2="482" y1="171" y2="171" stroke="#e5e5ea" stroke-width="1"/><text x="116" y="174" text-anchor="end" font-size="9" fill="#6e6e73">15.0s</text><line x1="120" x2="482" y1="135" y2="135" stroke="#e5e5ea" stroke-width="1"/><text x="116" y="138" text-anchor="end" font-size="9" fill="#6e6e73">20.0s</text><line x1="120" x2="482" y1="98" y2="98" stroke="#e5e5ea" stroke-width="1"/><text x="116" y="101" text-anchor="end" font-size="9" fill="#6e6e73">25.0s</text><text x="203" y="296" text-anchor="middle" font-size="10" font-weight="600" fill="#1c1c1e">cold</text><rect x="120" y="276" width="52" height="4" rx="2" fill="#0A84FF"/><line x1="146" x2="146" y1="277" y2="276" stroke="#1c1c1e80" stroke-width="1"/><text x="146" y="274" text-anchor="middle" font-size="9" fill="#1c1c1e">0.56s</text><rect x="176" y="276" width="52" height="4" rx="2" fill="#FF453A"/><line x1="202" x2="202" y1="276" y2="276" stroke="#1c1c1e80" stroke-width="1"/><text x="202" y="274" text-anchor="middle" font-size="9" fill="#1c1c1e">0.67s</text><rect x="232" y="277" width="52" height="3" rx="2" fill="#8E8E93"/><line x1="258" x2="258" y1="278" y2="277" stroke="#1c1c1e80" stroke-width="1"/><text x="258" y="275" text-anchor="middle" font-size="9" fill="#1c1c1e">0.52s</text><text x="399" y="296" text-anchor="middle" font-size="10" font-weight="600" fill="#1c1c1e">warm</text><rect x="316" y="277" width="52" height="3" rx="2" fill="#0A84FF"/><line x1="342" x2="342" y1="277" y2="277" stroke="#1c1c1e80" stroke-width="1"/><text x="342" y="275" text-anchor="middle" font-size="9" fill="#1c1c1e">0.47s</text><rect x="372" y="277" width="52" height="3" rx="2" fill="#FF453A"/><line x1="398" x2="398" y1="277" y2="276" stroke="#1c1c1e80" stroke-width="1"/><text x="398" y="275" text-anchor="middle" font-size="9" fill="#1c1c1e">0.47s</text><rect x="428" y="277" width="52" height="3" rx="2" fill="#8E8E93"/><line x1="454" x2="454" y1="277" y2="276" stroke="#1c1c1e80" stroke-width="1"/><text x="454" y="275" text-anchor="middle" font-size="9" fill="#1c1c1e">0.53s</text><line x1="120" x2="482" y1="280" y2="280" stroke="#1c1c1e" stroke-width="1.2"/><text x="740" y="84" text-anchor="middle" font-size="11" font-weight="600">upstream = remote</text><line x1="580" x2="942" y1="280" y2="280" stroke="#e5e5ea" stroke-width="1"/><text x="576" y="283" text-anchor="end" font-size="9" fill="#6e6e73">0.0s</text><line x1="580" x2="942" y1="244" y2="244" stroke="#e5e5ea" stroke-width="1"/><text x="576" y="247" text-anchor="end" font-size="9" fill="#6e6e73">5.0s</text><line x1="580" x2="942" y1="208" y2="208" stroke="#e5e5ea" stroke-width="1"/><text x="576" y="211" text-anchor="end" font-size="9" fill="#6e6e73">10.0s</text><line x1="580" x2="942" y1="171" y2="171" stroke="#e5e5ea" stroke-width="1"/><text x="576" y="174" text-anchor="end" font-size="9" fill="#6e6e73">15.0s</text><line x1="580" x2="942" y1="135" y2="135" stroke="#e5e5ea" stroke-width="1"/><text x="576" y="138" text-anchor="end" font-size="9" fill="#6e6e73">20.0s</text><line x1="580" x2="942" y1="98" y2="98" stroke="#e5e5ea" stroke-width="1"/><text x="576" y="101" text-anchor="end" font-size="9" fill="#6e6e73">25.0s</text><text x="663" y="296" text-anchor="middle" font-size="10" font-weight="600" fill="#1c1c1e">cold</text><rect x="580" y="103" width="52" height="177" rx="2" fill="#0A84FF"/><line x1="606" x2="606" y1="103" y2="103" stroke="#1c1c1e80" stroke-width="1"/><text x="606" y="101" text-anchor="middle" font-size="9" fill="#1c1c1e">24.37s</text><rect x="636" y="103" width="52" height="177" rx="2" fill="#FF453A"/><line x1="662" x2="662" y1="103" y2="103" stroke="#1c1c1e80" stroke-width="1"/><text x="662" y="101" text-anchor="middle" font-size="9" fill="#1c1c1e">24.42s</text><rect x="692" y="103" width="52" height="177" rx="2" fill="#8E8E93"/><line x1="718" x2="718" y1="103" y2="103" stroke="#1c1c1e80" stroke-width="1"/><text x="718" y="101" text-anchor="middle" font-size="9" fill="#1c1c1e">24.35s</text><text x="859" y="296" text-anchor="middle" font-size="10" font-weight="600" fill="#1c1c1e">warm</text><rect x="776" y="277" width="52" height="3" rx="2" fill="#0A84FF"/><line x1="802" x2="802" y1="277" y2="275" stroke="#1c1c1e80" stroke-width="1"/><text x="802" y="275" text-anchor="middle" font-size="9" fill="#1c1c1e">0.52s</text><rect x="832" y="277" width="52" height="3" rx="2" fill="#FF453A"/><line x1="858" x2="858" y1="277" y2="277" stroke="#1c1c1e80" stroke-width="1"/><text x="858" y="275" text-anchor="middle" font-size="9" fill="#1c1c1e">0.53s</text><rect x="888" y="103" width="52" height="177" rx="2" fill="#8E8E93"/><line x1="914" x2="914" y1="103" y2="102" stroke="#1c1c1e80" stroke-width="1"/><text x="914" y="101" text-anchor="middle" font-size="9" fill="#1c1c1e">24.38s</text><line x1="580" x2="942" y1="280" y2="280" stroke="#1c1c1e" stroke-width="1.2"/><rect x="70" y="372" width="11" height="11" rx="2" fill="#0A84FF"/><text x="85" y="381" font-size="11">pulsys</text><rect x="220" y="372" width="11" height="11" rx="2" fill="#FF453A"/><text x="235" y="381" font-size="11">dingospeed</text><rect x="370" y="372" width="11" height="11" rx="2" fill="#8E8E93"/><text x="385" y="381" font-size="11">direct</text><text x="590" y="390" font-size="10" fill="#6e6e73">scripts/bench_e2e.sh  ·  scripts/render_bench_matrix.go</text></svg>