<svg xmlns="http://www.w3.org/2000/svg" viewBox="0 0 862 390" font-family="-apple-system, BlinkMacSystemFont, 'SF Pro Text', sans-serif" font-size="11" fill="#1c1c1e"><rect width="862" height="390" fill="#ffffff"/><text x="70" y="32" font-size="20" font-weight="700">Sidecar footprint  ·  pulsys vs DingoSpeed</text><text x="70" y="54" font-size="11" fill="#6e6e73">20s sustained wrk -t4 -c8 warm hammer · RSS = peak resident set · CPU = cumulative process time</text><text x="70" y="72" font-size="10" fill="#6e6e73">Lower is better on BOTH axes.</text><text x="250" y="104" text-anchor="middle" font-size="11" font-weight="600">Peak RSS (MB)</text><line x1="120" x2="422" y1="270" y2="270" stroke="#e5e5ea" stroke-width="1"/><text x="116" y="273" text-anchor="end" font-size="9" fill="#6e6e73">0MB</text><line x1="120" x2="422" y1="239" y2="239" stroke="#e5e5ea" stroke-width="1"/><text x="116" y="242" text-anchor="end" font-size="9" fill="#6e6e73">200MB</text><line x1="120" x2="422" y1="208" y2="208" stroke="#e5e5ea" stroke-width="1"/><text x="116" y="211" text-anchor="end" font-size="9" fill="#6e6e73">400MB</text><line x1="120" x2="422" y1="177" y2="177" stroke="#e5e5ea" stroke-width="1"/><text x="116" y="180" text-anchor="end" font-size="9" fill="#6e6e73">600MB</text><line x1="120" x2="422" y1="146" y2="146" stroke="#e5e5ea" stroke-width="1"/><text x="116" y="149" text-anchor="end" font-size="9" fill="#6e6e73">800MB</text><line x1="120" x2="422" y1="114" y2="114" stroke="#e5e5ea" stroke-width="1"/><text x="116" y="117" text-anchor="end" font-size="9" fill="#6e6e73">1000MB</text><text x="165" y="284" text-anchor="middle" font-size="10" fill="#1c1c1e">256 KiB</text><rect x="120" y="269" width="43" height="1" rx="2" fill="#0A84FF"/><text x="141" y="267" text-anchor="middle" font-size="9" fill="#1c1c1e">12MB</text><rect x="167" y="220" width="43" height="50" rx="2" fill="#FF453A"/><text x="188" y="218" text-anchor="middle" font-size="9" fill="#1c1c1e">323MB</text><text x="270" y="284" text-anchor="middle" font-size="10" fill="#1c1c1e">16 MiB</text><rect x="225" y="269" width="43" height="1" rx="2" fill="#0A84FF"/><text x="246" y="267" text-anchor="middle" font-size="9" fill="#1c1c1e">12MB</text><rect x="272" y="220" width="43" height="50" rx="2" fill="#FF453A"/><text x="293" y="218" text-anchor="middle" font-size="9" fill="#1c1c1e">324MB</text><text x="375" y="284" text-anchor="middle" font-size="10" fill="#1c1c1e">64 MiB</text><rect x="330" y="269" width="43" height="1" rx="2" fill="#0A84FF"/><text x="351" y="267" text-anchor="middle" font-size="9" fill="#1c1c1e">12MB</text><rect x="377" y="137" width="43" height="133" rx="2" fill="#FF453A"/><text x="398" y="135" text-anchor="middle" font-size="9" fill="#1c1c1e">853MB</text><line x1="120" x2="422" y1="270" y2="270" stroke="#1c1c1e" stroke-width="1.2"/><text x="650" y="104" text-anchor="middle" font-size="11" font-weight="600">Cumulative CPU (s)</text><line x1="520" x2="822" y1="270" y2="270" stroke="#e5e5ea" stroke-width="1"/><text x="516" y="273" text-anchor="end" font-size="9" fill="#6e6e73">0s</text><line x1="520" x2="822" y1="239" y2="239" stroke="#e5e5ea" stroke-width="1"/><text x="516" y="242" text-anchor="end" font-size="9" fill="#6e6e73">40s</text><line x1="520" x2="822" y1="208" y2="208" stroke="#e5e5ea" stroke-width="1"/><text x="516" y="211" text-anchor="end" font-size="9" fill="#6e6e73">80s</text><line x1="520" x2="822" y1="177" y2="177" stroke="#e5e5ea" stroke-width="1"/><text x="516" y="180" text-anchor="end" font-size="9" fill="#6e6e73">120s</text><line x1="520" x2="822" y1="146" y2="146" stroke="#e5e5ea" stroke-width="1"/><text x="516" y="149" text-anchor="end" font-size="9" fill="#6e6e73">160s</text><line x1="520" x2="822" y1="114" y2="114" stroke="#e5e5ea" stroke-width="1"/><text x="516" y="117" text-anchor="end" font-size="9" fill="#6e6e73">200s</text><text x="565" y="284" text-anchor="middle" font-size="10" fill="#1c1c1e">256 KiB</text><rect x="520" y="252" width="43" height="18" rx="2" fill="#0A84FF"/><text x="541" y="250" text-anchor="middle" font-size="9" fill="#1c1c1e">24s</text><rect x="567" y="202" width="43" height="68" rx="2" fill="#FF453A"/><text x="588" y="200" text-anchor="middle" font-size="9" fill="#1c1c1e">88s</text><text x="670" y="284" text-anchor="middle" font-size="10" fill="#1c1c1e">16 MiB</text><rect x="625" y="258" width="43" height="12" rx="2" fill="#0A84FF"/><text x="646" y="256" text-anchor="middle" font-size="9" fill="#1c1c1e">16s</text><rect x="672" y="173" width="43" height="97" rx="2" fill="#FF453A"/><text x="693" y="171" text-anchor="middle" font-size="9" fill="#1c1c1e">125s</text><text x="775" y="284" text-anchor="middle" font-size="10" fill="#1c1c1e">64 MiB</text><rect x="730" y="255" width="43" height="15" rx="2" fill="#0A84FF"/><text x="751" y="253" text-anchor="middle" font-size="9" fill="#1c1c1e">20s</text><rect x="777" y="145" width="43" height="125" rx="2" fill="#FF453A"/><text x="798" y="143" text-anchor="middle" font-size="9" fill="#1c1c1e">161s</text><line x1="520" x2="822" y1="270" y2="270" stroke="#1c1c1e" stroke-width="1.2"/><rect x="70" y="362" width="11" height="11" rx="2" fill="#0A84FF"/><text x="85" y="371" font-size="11">pulsys</text><rect x="220" y="362" width="11" height="11" rx="2" fill="#FF453A"/><text x="235" y="371" font-size="11">dingospeed</text><text x="430" y="380" font-size="10" fill="#6e6e73">scripts/bench_footprint.sh  ·  scripts/render_bench_matrix.go</text></svg>