<svg xmlns="http://www.w3.org/2000/svg" viewBox="0 0 952 1082" font-family="-apple-system, BlinkMacSystemFont, 'SF Pro Text', sans-serif" font-size="13" fill="#1c1c1e"><rect width="952" height="1082" fill="#ffffff"/><text x="24" y="40" font-size="22" font-weight="700">Warm-cache p99 latency, µs  ·  pulsys vs DingoSpeed</text><text x="24" y="64" font-size="13" fill="#6e6e73">localhost loopback · wrk · payloads ≤16 MiB · bar = median p99 · whisker = min/max</text><text x="24" y="84" font-size="12" fill="#6e6e73">Lower is better.  pulsys bars are blue.  64m+ in bench_summary.md only.</text><text x="244" y="100" text-anchor="middle" font-size="14" font-weight="600">concurrency = 1</text><line x1="84" x2="452" y1="334" y2="334" stroke="#e5e5ea" stroke-width="1"/><text x="78" y="338" text-anchor="end" font-size="11" fill="#6e6e73">0</text><line x1="84" x2="452" y1="291" y2="291" stroke="#e5e5ea" stroke-width="1"/><text x="78" y="295" text-anchor="end" font-size="11" fill="#6e6e73">4.0ms</text><line x1="84" x2="452" y1="248" y2="248" stroke="#e5e5ea" stroke-width="1"/><text x="78" y="252" text-anchor="end" font-size="11" fill="#6e6e73">8.0ms</text><line x1="84" x2="452" y1="205" y2="205" stroke="#e5e5ea" stroke-width="1"/><text x="78" y="209" text-anchor="end" font-size="11" fill="#6e6e73">12ms</text><line x1="84" x2="452" y1="162" y2="162" stroke="#e5e5ea" stroke-width="1"/><text x="78" y="166" text-anchor="end" font-size="11" fill="#6e6e73">16ms</text><line x1="84" x2="452" y1="118" y2="118" stroke="#e5e5ea" stroke-width="1"/><text x="78" y="122" text-anchor="end" font-size="11" fill="#6e6e73">20ms</text><text x="110" y="348" text-anchor="end" font-size="11" fill="#1c1c1e" transform="rotate(-35 110,348)">4 KiB</text><rect x="84" y="332" width="25" height="2" rx="2" fill="#0A84FF"/><line x1="96" x2="96" y1="333" y2="318" stroke="#1c1c1e80" stroke-width="1"/><rect x="112" y="313" width="25" height="21" rx="2" fill="#FF453A"/><line x1="124" x2="124" y1="314" y2="313" stroke="#1c1c1e80" stroke-width="1"/><text x="173" y="348" text-anchor="end" font-size="11" fill="#1c1c1e" transform="rotate(-35 173,348)">64 KiB</text><rect x="147" y="333" width="25" height="1" rx="2" fill="#0A84FF"/><line x1="159" x2="159" y1="334" y2="334" stroke="#1c1c1e80" stroke-width="1"/><rect x="175" y="313" width="25" height="21" rx="2" fill="#FF453A"/><line x1="187" x2="187" y1="314" y2="311" stroke="#1c1c1e80" stroke-width="1"/><text x="236" y="348" text-anchor="end" font-size="11" fill="#1c1c1e" transform="rotate(-35 236,348)">256 KiB</text><rect x="210" y="332" width="25" height="2" rx="2" fill="#0A84FF"/><line x1="222" x2="222" y1="333" y2="177" stroke="#1c1c1e80" stroke-width="1"/><rect x="238" y="314" width="25" height="20" rx="2" fill="#FF453A"/><line x1="250" x2="250" y1="314" y2="288" stroke="#1c1c1e80" stroke-width="1"/><text x="299" y="348" text-anchor="end" font-size="11" fill="#1c1c1e" transform="rotate(-35 299,348)">4 MiB</text><rect x="273" y="323" width="25" height="11" rx="2" fill="#0A84FF"/><line x1="285" x2="285" y1="324" y2="314" stroke="#1c1c1e80" stroke-width="1"/><rect x="301" y="308" width="25" height="26" rx="2" fill="#FF453A"/><line x1="313" x2="313" y1="309" y2="240" stroke="#1c1c1e80" stroke-width="1"/><text x="362" y="348" text-anchor="end" font-size="11" fill="#1c1c1e" transform="rotate(-35 362,348)">10 MiB</text><rect x="336" y="306" width="25" height="28" rx="2" fill="#0A84FF"/><line x1="348" x2="348" y1="307" y2="301" stroke="#1c1c1e80" stroke-width="1"/><rect x="364" y="287" width="25" height="47" rx="2" fill="#FF453A"/><line x1="376" x2="376" y1="288" y2="252" stroke="#1c1c1e80" stroke-width="1"/><text x="425" y="348" text-anchor="end" font-size="11" fill="#1c1c1e" transform="rotate(-35 425,348)">16 MiB</text><rect x="399" y="288" width="25" height="46" rx="2" fill="#0A84FF"/><line x1="411" x2="411" y1="289" y2="285" stroke="#1c1c1e80" stroke-width="1"/><rect x="427" y="272" width="25" height="62" rx="2" fill="#FF453A"/><line x1="439" x2="439" y1="274" y2="261" stroke="#1c1c1e80" stroke-width="1"/><line x1="84" x2="452" y1="334" y2="334" stroke="#1c1c1e" stroke-width="1.2"/><text x="40" y="226" font-size="11" fill="#6e6e73" transform="rotate(-90 40,226)">p99 µs</text><text x="708" y="100" text-anchor="middle" font-size="14" font-weight="600">concurrency = 4</text><line x1="548" x2="916" y1="334" y2="334" stroke="#e5e5ea" stroke-width="1"/><text x="542" y="338" text-anchor="end" font-size="11" fill="#6e6e73">0</text><line x1="548" x2="916" y1="291" y2="291" stroke="#e5e5ea" stroke-width="1"/><text x="542" y="295" text-anchor="end" font-size="11" fill="#6e6e73">5.0ms</text><line x1="548" x2="916" y1="248" y2="248" stroke="#e5e5ea" stroke-width="1"/><text x="542" y="252" text-anchor="end" font-size="11" fill="#6e6e73">10ms</text><line x1="548" x2="916" y1="205" y2="205" stroke="#e5e5ea" stroke-width="1"/><text x="542" y="209" text-anchor="end" font-size="11" fill="#6e6e73">15ms</text><line x1="548" x2="916" y1="162" y2="162" stroke="#e5e5ea" stroke-width="1"/><text x="542" y="166" text-anchor="end" font-size="11" fill="#6e6e73">20ms</text><line x1="548" x2="916" y1="118" y2="118" stroke="#e5e5ea" stroke-width="1"/><text x="542" y="122" text-anchor="end" font-size="11" fill="#6e6e73">25ms</text><text x="574" y="348" text-anchor="end" font-size="11" fill="#1c1c1e" transform="rotate(-35 574,348)">4 KiB</text><rect x="548" y="333" width="25" height="1" rx="2" fill="#0A84FF"/><line x1="560" x2="560" y1="334" y2="334" stroke="#1c1c1e80" stroke-width="1"/><rect x="576" y="315" width="25" height="19" rx="2" fill="#FF453A"/><line x1="588" x2="588" y1="315" y2="315" stroke="#1c1c1e80" stroke-width="1"/><text x="637" y="348" text-anchor="end" font-size="11" fill="#1c1c1e" transform="rotate(-35 637,348)">64 KiB</text><rect x="611" y="333" width="25" height="1" rx="2" fill="#0A84FF"/><line x1="623" x2="623" y1="333" y2="331" stroke="#1c1c1e80" stroke-width="1"/><rect x="639" y="314" width="25" height="20" rx="2" fill="#FF453A"/><line x1="651" x2="651" y1="315" y2="313" stroke="#1c1c1e80" stroke-width="1"/><text x="700" y="348" text-anchor="end" font-size="11" fill="#1c1c1e" transform="rotate(-35 700,348)">256 KiB</text><rect x="674" y="333" width="25" height="1" rx="2" fill="#0A84FF"/><line x1="686" x2="686" y1="333" y2="331" stroke="#1c1c1e80" stroke-width="1"/><rect x="702" y="315" width="25" height="19" rx="2" fill="#FF453A"/><line x1="714" x2="714" y1="316" y2="315" stroke="#1c1c1e80" stroke-width="1"/><text x="763" y="348" text-anchor="end" font-size="11" fill="#1c1c1e" transform="rotate(-35 763,348)">4 MiB</text><rect x="737" y="310" width="25" height="24" rx="2" fill="#0A84FF"/><line x1="749" x2="749" y1="314" y2="309" stroke="#1c1c1e80" stroke-width="1"/><rect x="765" y="274" width="25" height="60" rx="2" fill="#FF453A"/><line x1="777" x2="777" y1="289" y2="230" stroke="#1c1c1e80" stroke-width="1"/><text x="826" y="348" text-anchor="end" font-size="11" fill="#1c1c1e" transform="rotate(-35 826,348)">10 MiB</text><rect x="800" y="280" width="25" height="54" rx="2" fill="#0A84FF"/><line x1="812" x2="812" y1="286" y2="277" stroke="#1c1c1e80" stroke-width="1"/><rect x="828" y="235" width="25" height="99" rx="2" fill="#FF453A"/><line x1="840" x2="840" y1="235" y2="235" stroke="#1c1c1e80" stroke-width="1"/><text x="889" y="348" text-anchor="end" font-size="11" fill="#1c1c1e" transform="rotate(-35 889,348)">16 MiB</text><rect x="863" y="252" width="25" height="82" rx="2" fill="#0A84FF"/><line x1="875" x2="875" y1="258" y2="224" stroke="#1c1c1e80" stroke-width="1"/><rect x="891" y="199" width="25" height="135" rx="2" fill="#FF453A"/><line x1="903" x2="903" y1="202" y2="139" stroke="#1c1c1e80" stroke-width="1"/><line x1="548" x2="916" y1="334" y2="334" stroke="#1c1c1e" stroke-width="1.2"/><text x="504" y="226" font-size="11" fill="#6e6e73" transform="rotate(-90 504,226)">p99 µs</text><text x="244" y="416" text-anchor="middle" font-size="14" font-weight="600">concurrency = 8</text><line x1="84" x2="452" y1="650" y2="650" stroke="#e5e5ea" stroke-width="1"/><text x="78" y="654" text-anchor="end" font-size="11" fill="#6e6e73">0</text><line x1="84" x2="452" y1="607" y2="607" stroke="#e5e5ea" stroke-width="1"/><text x="78" y="611" text-anchor="end" font-size="11" fill="#6e6e73">6.0ms</text><line x1="84" x2="452" y1="564" y2="564" stroke="#e5e5ea" stroke-width="1"/><text x="78" y="568" text-anchor="end" font-size="11" fill="#6e6e73">12ms</text><line x1="84" x2="452" y1="521" y2="521" stroke="#e5e5ea" stroke-width="1"/><text x="78" y="525" text-anchor="end" font-size="11" fill="#6e6e73">18ms</text><line x1="84" x2="452" y1="478" y2="478" stroke="#e5e5ea" stroke-width="1"/><text x="78" y="482" text-anchor="end" font-size="11" fill="#6e6e73">24ms</text><line x1="84" x2="452" y1="434" y2="434" stroke="#e5e5ea" stroke-width="1"/><text x="78" y="438" text-anchor="end" font-size="11" fill="#6e6e73">30ms</text><text x="110" y="664" text-anchor="end" font-size="11" fill="#1c1c1e" transform="rotate(-35 110,664)">4 KiB</text><rect x="84" y="649" width="25" height="1" rx="2" fill="#0A84FF"/><line x1="96" x2="96" y1="650" y2="650" stroke="#1c1c1e80" stroke-width="1"/><rect x="112" y="632" width="25" height="18" rx="2" fill="#FF453A"/><line x1="124" x2="124" y1="632" y2="613" stroke="#1c1c1e80" stroke-width="1"/><text x="173" y="664" text-anchor="end" font-size="11" fill="#1c1c1e" transform="rotate(-35 173,664)">64 KiB</text><rect x="147" y="649" width="25" height="1" rx="2" fill="#0A84FF"/><line x1="159" x2="159" y1="649" y2="649" stroke="#1c1c1e80" stroke-width="1"/><rect x="175" y="631" width="25" height="19" rx="2" fill="#FF453A"/><line x1="187" x2="187" y1="631" y2="603" stroke="#1c1c1e80" stroke-width="1"/><text x="236" y="664" text-anchor="end" font-size="11" fill="#1c1c1e" transform="rotate(-35 236,664)">256 KiB</text><rect x="210" y="648" width="25" height="2" rx="2" fill="#0A84FF"/><line x1="222" x2="222" y1="648" y2="647" stroke="#1c1c1e80" stroke-width="1"/><rect x="238" y="632" width="25" height="18" rx="2" fill="#FF453A"/><line x1="250" x2="250" y1="632" y2="621" stroke="#1c1c1e80" stroke-width="1"/><text x="299" y="664" text-anchor="end" font-size="11" fill="#1c1c1e" transform="rotate(-35 299,664)">4 MiB</text><rect x="273" y="611" width="25" height="39" rx="2" fill="#0A84FF"/><line x1="285" x2="285" y1="618" y2="610" stroke="#1c1c1e80" stroke-width="1"/><rect x="301" y="595" width="25" height="55" rx="2" fill="#FF453A"/><line x1="313" x2="313" y1="595" y2="594" stroke="#1c1c1e80" stroke-width="1"/><text x="362" y="664" text-anchor="end" font-size="11" fill="#1c1c1e" transform="rotate(-35 362,664)">10 MiB</text><rect x="336" y="582" width="25" height="68" rx="2" fill="#0A84FF"/><line x1="348" x2="348" y1="583" y2="580" stroke="#1c1c1e80" stroke-width="1"/><rect x="364" y="536" width="25" height="114" rx="2" fill="#FF453A"/><line x1="376" x2="376" y1="536" y2="535" stroke="#1c1c1e80" stroke-width="1"/><text x="425" y="664" text-anchor="end" font-size="11" fill="#1c1c1e" transform="rotate(-35 425,664)">16 MiB</text><rect x="399" y="531" width="25" height="119" rx="2" fill="#0A84FF"/><line x1="411" x2="411" y1="538" y2="524" stroke="#1c1c1e80" stroke-width="1"/><rect x="427" y="492" width="25" height="158" rx="2" fill="#FF453A"/><line x1="439" x2="439" y1="493" y2="456" stroke="#1c1c1e80" stroke-width="1"/><line x1="84" x2="452" y1="650" y2="650" stroke="#1c1c1e" stroke-width="1.2"/><text x="40" y="542" font-size="11" fill="#6e6e73" transform="rotate(-90 40,542)">p99 µs</text><text x="708" y="416" text-anchor="middle" font-size="14" font-weight="600">concurrency = 16</text><line x1="548" x2="916" y1="650" y2="650" stroke="#e5e5ea" stroke-width="1"/><text x="542" y="654" text-anchor="end" font-size="11" fill="#6e6e73">0</text><line x1="548" x2="916" y1="607" y2="607" stroke="#e5e5ea" stroke-width="1"/><text x="542" y="611" text-anchor="end" font-size="11" fill="#6e6e73">12ms</text><line x1="548" x2="916" y1="564" y2="564" stroke="#e5e5ea" stroke-width="1"/><text x="542" y="568" text-anchor="end" font-size="11" fill="#6e6e73">24ms</text><line x1="548" x2="916" y1="521" y2="521" stroke="#e5e5ea" stroke-width="1"/><text x="542" y="525" text-anchor="end" font-size="11" fill="#6e6e73">36ms</text><line x1="548" x2="916" y1="478" y2="478" stroke="#e5e5ea" stroke-width="1"/><text x="542" y="482" text-anchor="end" font-size="11" fill="#6e6e73">48ms</text><line x1="548" x2="916" y1="434" y2="434" stroke="#e5e5ea" stroke-width="1"/><text x="542" y="438" text-anchor="end" font-size="11" fill="#6e6e73">60ms</text><text x="574" y="664" text-anchor="end" font-size="11" fill="#1c1c1e" transform="rotate(-35 574,664)">4 KiB</text><rect x="548" y="648" width="25" height="2" rx="2" fill="#0A84FF"/><line x1="560" x2="560" y1="648" y2="642" stroke="#1c1c1e80" stroke-width="1"/><rect x="576" y="637" width="25" height="13" rx="2" fill="#FF453A"/><line x1="588" x2="588" y1="637" y2="637" stroke="#1c1c1e80" stroke-width="1"/><text x="637" y="664" text-anchor="end" font-size="11" fill="#1c1c1e" transform="rotate(-35 637,664)">64 KiB</text><rect x="611" y="649" width="25" height="1" rx="2" fill="#0A84FF"/><line x1="623" x2="623" y1="649" y2="648" stroke="#1c1c1e80" stroke-width="1"/><rect x="639" y="635" width="25" height="15" rx="2" fill="#FF453A"/><line x1="651" x2="651" y1="636" y2="605" stroke="#1c1c1e80" stroke-width="1"/><text x="700" y="664" text-anchor="end" font-size="11" fill="#1c1c1e" transform="rotate(-35 700,664)">256 KiB</text><rect x="674" y="648" width="25" height="2" rx="2" fill="#0A84FF"/><line x1="686" x2="686" y1="648" y2="648" stroke="#1c1c1e80" stroke-width="1"/><rect x="702" y="626" width="25" height="24" rx="2" fill="#FF453A"/><line x1="714" x2="714" y1="636" y2="615" stroke="#1c1c1e80" stroke-width="1"/><text x="763" y="664" text-anchor="end" font-size="11" fill="#1c1c1e" transform="rotate(-35 763,664)">4 MiB</text><rect x="737" y="620" width="25" height="30" rx="2" fill="#0A84FF"/><line x1="749" x2="749" y1="620" y2="619" stroke="#1c1c1e80" stroke-width="1"/><rect x="765" y="600" width="25" height="50" rx="2" fill="#FF453A"/><line x1="777" x2="777" y1="603" y2="583" stroke="#1c1c1e80" stroke-width="1"/><text x="826" y="664" text-anchor="end" font-size="11" fill="#1c1c1e" transform="rotate(-35 826,664)">10 MiB</text><rect x="800" y="581" width="25" height="69" rx="2" fill="#0A84FF"/><line x1="812" x2="812" y1="583" y2="568" stroke="#1c1c1e80" stroke-width="1"/><rect x="828" y="542" width="25" height="108" rx="2" fill="#FF453A"/><line x1="840" x2="840" y1="542" y2="525" stroke="#1c1c1e80" stroke-width="1"/><text x="889" y="664" text-anchor="end" font-size="11" fill="#1c1c1e" transform="rotate(-35 889,664)">16 MiB</text><rect x="863" y="516" width="25" height="134" rx="2" fill="#0A84FF"/><line x1="875" x2="875" y1="536" y2="503" stroke="#1c1c1e80" stroke-width="1"/><rect x="891" y="480" width="25" height="170" rx="2" fill="#FF453A"/><line x1="903" x2="903" y1="488" y2="466" stroke="#1c1c1e80" stroke-width="1"/><line x1="548" x2="916" y1="650" y2="650" stroke="#1c1c1e" stroke-width="1.2"/><text x="504" y="542" font-size="11" fill="#6e6e73" transform="rotate(-90 504,542)">p99 µs</text><text x="244" y="732" text-anchor="middle" font-size="14" font-weight="600">concurrency = 32</text><line x1="84" x2="452" y1="966" y2="966" stroke="#e5e5ea" stroke-width="1"/><text x="78" y="970" text-anchor="end" font-size="11" fill="#6e6e73">0</text><line x1="84" x2="452" y1="923" y2="923" stroke="#e5e5ea" stroke-width="1"/><text x="78" y="927" text-anchor="end" font-size="11" fill="#6e6e73">30ms</text><line x1="84" x2="452" y1="880" y2="880" stroke="#e5e5ea" stroke-width="1"/><text x="78" y="884" text-anchor="end" font-size="11" fill="#6e6e73">60ms</text><line x1="84" x2="452" y1="837" y2="837" stroke="#e5e5ea" stroke-width="1"/><text x="78" y="841" text-anchor="end" font-size="11" fill="#6e6e73">90ms</text><line x1="84" x2="452" y1="794" y2="794" stroke="#e5e5ea" stroke-width="1"/><text x="78" y="798" text-anchor="end" font-size="11" fill="#6e6e73">120ms</text><line x1="84" x2="452" y1="750" y2="750" stroke="#e5e5ea" stroke-width="1"/><text x="78" y="754" text-anchor="end" font-size="11" fill="#6e6e73">150ms</text><text x="110" y="980" text-anchor="end" font-size="11" fill="#1c1c1e" transform="rotate(-35 110,980)">4 KiB</text><rect x="84" y="963" width="25" height="3" rx="2" fill="#0A84FF"/><line x1="96" x2="96" y1="964" y2="963" stroke="#1c1c1e80" stroke-width="1"/><rect x="112" y="953" width="25" height="13" rx="2" fill="#FF453A"/><line x1="124" x2="124" y1="953" y2="953" stroke="#1c1c1e80" stroke-width="1"/><text x="173" y="980" text-anchor="end" font-size="11" fill="#1c1c1e" transform="rotate(-35 173,980)">64 KiB</text><rect x="147" y="965" width="25" height="1" rx="2" fill="#0A84FF"/><line x1="159" x2="159" y1="965" y2="965" stroke="#1c1c1e80" stroke-width="1"/><rect x="175" y="949" width="25" height="17" rx="2" fill="#FF453A"/><line x1="187" x2="187" y1="950" y2="939" stroke="#1c1c1e80" stroke-width="1"/><text x="236" y="980" text-anchor="end" font-size="11" fill="#1c1c1e" transform="rotate(-35 236,980)">256 KiB</text><rect x="210" y="964" width="25" height="2" rx="2" fill="#0A84FF"/><line x1="222" x2="222" y1="964" y2="964" stroke="#1c1c1e80" stroke-width="1"/><rect x="238" y="941" width="25" height="25" rx="2" fill="#FF453A"/><line x1="250" x2="250" y1="950" y2="939" stroke="#1c1c1e80" stroke-width="1"/><text x="299" y="980" text-anchor="end" font-size="11" fill="#1c1c1e" transform="rotate(-35 299,980)">4 MiB</text><rect x="273" y="938" width="25" height="28" rx="2" fill="#0A84FF"/><line x1="285" x2="285" y1="939" y2="938" stroke="#1c1c1e80" stroke-width="1"/><rect x="301" y="928" width="25" height="38" rx="2" fill="#FF453A"/><line x1="313" x2="313" y1="929" y2="928" stroke="#1c1c1e80" stroke-width="1"/><text x="362" y="980" text-anchor="end" font-size="11" fill="#1c1c1e" transform="rotate(-35 362,980)">10 MiB</text><rect x="336" y="900" width="25" height="66" rx="2" fill="#0A84FF"/><line x1="348" x2="348" y1="901" y2="898" stroke="#1c1c1e80" stroke-width="1"/><rect x="364" y="877" width="25" height="89" rx="2" fill="#FF453A"/><line x1="376" x2="376" y1="878" y2="854" stroke="#1c1c1e80" stroke-width="1"/><text x="425" y="980" text-anchor="end" font-size="11" fill="#1c1c1e" transform="rotate(-35 425,980)">16 MiB</text><rect x="399" y="818" width="25" height="148" rx="2" fill="#0A84FF"/><line x1="411" x2="411" y1="838" y2="803" stroke="#1c1c1e80" stroke-width="1"/><rect x="427" y="807" width="25" height="159" rx="2" fill="#FF453A"/><line x1="439" x2="439" y1="822" y2="781" stroke="#1c1c1e80" stroke-width="1"/><line x1="84" x2="452" y1="966" y2="966" stroke="#1c1c1e" stroke-width="1.2"/><text x="40" y="858" font-size="11" fill="#6e6e73" transform="rotate(-90 40,858)">p99 µs</text><rect x="24" y="1050" width="14" height="14" rx="3" fill="#0A84FF"/><text x="44" y="1061" font-size="13">pulsys</text><rect x="174" y="1050" width="14" height="14" rx="3" fill="#FF453A"/><text x="194" y="1061" font-size="13">dingospeed</text><text x="928" y="1070" text-anchor="end" font-size="11" fill="#6e6e73">scripts/bench_matrix.sh  ·  scripts/render_bench_matrix.go</text></svg>