<svg xmlns="http://www.w3.org/2000/svg" viewBox="0 0 952 1082" font-family="-apple-system, BlinkMacSystemFont, 'SF Pro Text', sans-serif" font-size="13" fill="#1c1c1e"><rect width="952" height="1082" fill="#ffffff"/><text x="24" y="40" font-size="22" font-weight="700">Warm-cache request rate, req/s  ·  pulsys vs DingoSpeed</text><text x="24" y="64" font-size="13" fill="#6e6e73">localhost loopback · wrk · payloads ≤16 MiB · bar = median req/s · whisker = min/max</text><text x="24" y="84" font-size="12" fill="#6e6e73">Higher is better.  pulsys bars are blue.  64m+ in bench_summary.md only.</text><text x="244" y="100" text-anchor="middle" font-size="14" font-weight="600">concurrency = 1</text><line x1="84" x2="452" y1="334" y2="334" stroke="#e5e5ea" stroke-width="1"/><text x="78" y="338" text-anchor="end" font-size="11" fill="#6e6e73">0</text><line x1="84" x2="452" y1="291" y2="291" stroke="#e5e5ea" stroke-width="1"/><text x="78" y="295" text-anchor="end" font-size="11" fill="#6e6e73">12k</text><line x1="84" x2="452" y1="248" y2="248" stroke="#e5e5ea" stroke-width="1"/><text x="78" y="252" text-anchor="end" font-size="11" fill="#6e6e73">24k</text><line x1="84" x2="452" y1="205" y2="205" stroke="#e5e5ea" stroke-width="1"/><text x="78" y="209" text-anchor="end" font-size="11" fill="#6e6e73">36k</text><line x1="84" x2="452" y1="162" y2="162" stroke="#e5e5ea" stroke-width="1"/><text x="78" y="166" text-anchor="end" font-size="11" fill="#6e6e73">48k</text><line x1="84" x2="452" y1="118" y2="118" stroke="#e5e5ea" stroke-width="1"/><text x="78" y="122" text-anchor="end" font-size="11" fill="#6e6e73">60k</text><text x="110" y="348" text-anchor="end" font-size="11" fill="#1c1c1e" transform="rotate(-35 110,348)">4 KiB</text><rect x="84" y="169" width="25" height="165" rx="2" fill="#0A84FF"/><line x1="96" x2="96" y1="170" y2="169" stroke="#1c1c1e80" stroke-width="1"/><rect x="112" y="332" width="25" height="2" rx="2" fill="#FF453A"/><line x1="124" x2="124" y1="332" y2="332" stroke="#1c1c1e80" stroke-width="1"/><text x="173" y="348" text-anchor="end" font-size="11" fill="#1c1c1e" transform="rotate(-35 173,348)">64 KiB</text><rect x="147" y="237" width="25" height="97" rx="2" fill="#0A84FF"/><line x1="159" x2="159" y1="238" y2="236" stroke="#1c1c1e80" stroke-width="1"/><rect x="175" y="332" width="25" height="2" rx="2" fill="#FF453A"/><line x1="187" x2="187" y1="332" y2="332" stroke="#1c1c1e80" stroke-width="1"/><text x="236" y="348" text-anchor="end" font-size="11" fill="#1c1c1e" transform="rotate(-35 236,348)">256 KiB</text><rect x="210" y="287" width="25" height="47" rx="2" fill="#0A84FF"/><line x1="222" x2="222" y1="288" y2="285" stroke="#1c1c1e80" stroke-width="1"/><rect x="238" y="332" width="25" height="2" rx="2" fill="#FF453A"/><line x1="250" x2="250" y1="332" y2="332" stroke="#1c1c1e80" stroke-width="1"/><text x="299" y="348" text-anchor="end" font-size="11" fill="#1c1c1e" transform="rotate(-35 299,348)">4 MiB</text><rect x="273" y="329" width="25" height="5" rx="2" fill="#0A84FF"/><line x1="285" x2="285" y1="330" y2="329" stroke="#1c1c1e80" stroke-width="1"/><rect x="301" y="333" width="25" height="1" rx="2" fill="#FF453A"/><line x1="313" x2="313" y1="333" y2="332" stroke="#1c1c1e80" stroke-width="1"/><text x="362" y="348" text-anchor="end" font-size="11" fill="#1c1c1e" transform="rotate(-35 362,348)">10 MiB</text><rect x="336" y="332" width="25" height="2" rx="2" fill="#0A84FF"/><line x1="348" x2="348" y1="332" y2="332" stroke="#1c1c1e80" stroke-width="1"/><rect x="364" y="333" width="25" height="1" rx="2" fill="#FF453A"/><line x1="376" x2="376" y1="334" y2="334" stroke="#1c1c1e80" stroke-width="1"/><text x="425" y="348" text-anchor="end" font-size="11" fill="#1c1c1e" transform="rotate(-35 425,348)">16 MiB</text><rect x="399" y="333" width="25" height="1" rx="2" fill="#0A84FF"/><line x1="411" x2="411" y1="333" y2="333" stroke="#1c1c1e80" stroke-width="1"/><rect x="427" y="333" width="25" height="1" rx="2" fill="#FF453A"/><line x1="439" x2="439" y1="334" y2="334" stroke="#1c1c1e80" stroke-width="1"/><line x1="84" x2="452" y1="334" y2="334" stroke="#1c1c1e" stroke-width="1.2"/><text x="40" y="226" font-size="11" fill="#6e6e73" transform="rotate(-90 40,226)">req/s</text><text x="708" y="100" text-anchor="middle" font-size="14" font-weight="600">concurrency = 4</text><line x1="548" x2="916" y1="334" y2="334" stroke="#e5e5ea" stroke-width="1"/><text x="542" y="338" text-anchor="end" font-size="11" fill="#6e6e73">0</text><line x1="548" x2="916" y1="291" y2="291" stroke="#e5e5ea" stroke-width="1"/><text x="542" y="295" text-anchor="end" font-size="11" fill="#6e6e73">30k</text><line x1="548" x2="916" y1="248" y2="248" stroke="#e5e5ea" stroke-width="1"/><text x="542" y="252" text-anchor="end" font-size="11" fill="#6e6e73">60k</text><line x1="548" x2="916" y1="205" y2="205" stroke="#e5e5ea" stroke-width="1"/><text x="542" y="209" text-anchor="end" font-size="11" fill="#6e6e73">90k</text><line x1="548" x2="916" y1="162" y2="162" stroke="#e5e5ea" stroke-width="1"/><text x="542" y="166" text-anchor="end" font-size="11" fill="#6e6e73">120k</text><line x1="548" x2="916" y1="118" y2="118" stroke="#e5e5ea" stroke-width="1"/><text x="542" y="122" text-anchor="end" font-size="11" fill="#6e6e73">150k</text><text x="574" y="348" text-anchor="end" font-size="11" fill="#1c1c1e" transform="rotate(-35 574,348)">4 KiB</text><rect x="548" y="155" width="25" height="179" rx="2" fill="#0A84FF"/><line x1="560" x2="560" y1="159" y2="155" stroke="#1c1c1e80" stroke-width="1"/><rect x="576" y="330" width="25" height="4" rx="2" fill="#FF453A"/><line x1="588" x2="588" y1="330" y2="330" stroke="#1c1c1e80" stroke-width="1"/><text x="637" y="348" text-anchor="end" font-size="11" fill="#1c1c1e" transform="rotate(-35 637,348)">64 KiB</text><rect x="611" y="239" width="25" height="95" rx="2" fill="#0A84FF"/><line x1="623" x2="623" y1="247" y2="238" stroke="#1c1c1e80" stroke-width="1"/><rect x="639" y="330" width="25" height="4" rx="2" fill="#FF453A"/><line x1="651" x2="651" y1="330" y2="330" stroke="#1c1c1e80" stroke-width="1"/><text x="700" y="348" text-anchor="end" font-size="11" fill="#1c1c1e" transform="rotate(-35 700,348)">256 KiB</text><rect x="674" y="293" width="25" height="41" rx="2" fill="#0A84FF"/><line x1="686" x2="686" y1="293" y2="288" stroke="#1c1c1e80" stroke-width="1"/><rect x="702" y="330" width="25" height="4" rx="2" fill="#FF453A"/><line x1="714" x2="714" y1="330" y2="330" stroke="#1c1c1e80" stroke-width="1"/><text x="763" y="348" text-anchor="end" font-size="11" fill="#1c1c1e" transform="rotate(-35 763,348)">4 MiB</text><rect x="737" y="331" width="25" height="3" rx="2" fill="#0A84FF"/><line x1="749" x2="749" y1="332" y2="331" stroke="#1c1c1e80" stroke-width="1"/><rect x="765" y="332" width="25" height="2" rx="2" fill="#FF453A"/><line x1="777" x2="777" y1="333" y2="332" stroke="#1c1c1e80" stroke-width="1"/><text x="826" y="348" text-anchor="end" font-size="11" fill="#1c1c1e" transform="rotate(-35 826,348)">10 MiB</text><rect x="800" y="333" width="25" height="1" rx="2" fill="#0A84FF"/><line x1="812" x2="812" y1="333" y2="333" stroke="#1c1c1e80" stroke-width="1"/><rect x="828" y="333" width="25" height="1" rx="2" fill="#FF453A"/><line x1="840" x2="840" y1="334" y2="334" stroke="#1c1c1e80" stroke-width="1"/><text x="889" y="348" text-anchor="end" font-size="11" fill="#1c1c1e" transform="rotate(-35 889,348)">16 MiB</text><rect x="863" y="333" width="25" height="1" rx="2" fill="#0A84FF"/><line x1="875" x2="875" y1="334" y2="334" stroke="#1c1c1e80" stroke-width="1"/><rect x="891" y="333" width="25" height="1" rx="2" fill="#FF453A"/><line x1="903" x2="903" y1="334" y2="334" stroke="#1c1c1e80" stroke-width="1"/><line x1="548" x2="916" y1="334" y2="334" stroke="#1c1c1e" stroke-width="1.2"/><text x="504" y="226" font-size="11" fill="#6e6e73" transform="rotate(-90 504,226)">req/s</text><text x="244" y="416" text-anchor="middle" font-size="14" font-weight="600">concurrency = 8</text><line x1="84" x2="452" y1="650" y2="650" stroke="#e5e5ea" stroke-width="1"/><text x="78" y="654" text-anchor="end" font-size="11" fill="#6e6e73">0</text><line x1="84" x2="452" y1="607" y2="607" stroke="#e5e5ea" stroke-width="1"/><text x="78" y="611" text-anchor="end" font-size="11" fill="#6e6e73">30k</text><line x1="84" x2="452" y1="564" y2="564" stroke="#e5e5ea" stroke-width="1"/><text x="78" y="568" text-anchor="end" font-size="11" fill="#6e6e73">60k</text><line x1="84" x2="452" y1="521" y2="521" stroke="#e5e5ea" stroke-width="1"/><text x="78" y="525" text-anchor="end" font-size="11" fill="#6e6e73">90k</text><line x1="84" x2="452" y1="478" y2="478" stroke="#e5e5ea" stroke-width="1"/><text x="78" y="482" text-anchor="end" font-size="11" fill="#6e6e73">120k</text><line x1="84" x2="452" y1="434" y2="434" stroke="#e5e5ea" stroke-width="1"/><text x="78" y="438" text-anchor="end" font-size="11" fill="#6e6e73">150k</text><text x="110" y="664" text-anchor="end" font-size="11" fill="#1c1c1e" transform="rotate(-35 110,664)">4 KiB</text><rect x="84" y="476" width="25" height="174" rx="2" fill="#0A84FF"/><line x1="96" x2="96" y1="480" y2="470" stroke="#1c1c1e80" stroke-width="1"/><rect x="112" y="645" width="25" height="5" rx="2" fill="#FF453A"/><line x1="124" x2="124" y1="645" y2="645" stroke="#1c1c1e80" stroke-width="1"/><text x="173" y="664" text-anchor="end" font-size="11" fill="#1c1c1e" transform="rotate(-35 173,664)">64 KiB</text><rect x="147" y="544" width="25" height="106" rx="2" fill="#0A84FF"/><line x1="159" x2="159" y1="549" y2="543" stroke="#1c1c1e80" stroke-width="1"/><rect x="175" y="645" width="25" height="5" rx="2" fill="#FF453A"/><line x1="187" x2="187" y1="645" y2="645" stroke="#1c1c1e80" stroke-width="1"/><text x="236" y="664" text-anchor="end" font-size="11" fill="#1c1c1e" transform="rotate(-35 236,664)">256 KiB</text><rect x="210" y="604" width="25" height="46" rx="2" fill="#0A84FF"/><line x1="222" x2="222" y1="606" y2="603" stroke="#1c1c1e80" stroke-width="1"/><rect x="238" y="645" width="25" height="5" rx="2" fill="#FF453A"/><line x1="250" x2="250" y1="645" y2="645" stroke="#1c1c1e80" stroke-width="1"/><text x="299" y="664" text-anchor="end" font-size="11" fill="#1c1c1e" transform="rotate(-35 299,664)">4 MiB</text><rect x="273" y="648" width="25" height="2" rx="2" fill="#0A84FF"/><line x1="285" x2="285" y1="648" y2="648" stroke="#1c1c1e80" stroke-width="1"/><rect x="301" y="648" width="25" height="2" rx="2" fill="#FF453A"/><line x1="313" x2="313" y1="649" y2="648" stroke="#1c1c1e80" stroke-width="1"/><text x="362" y="664" text-anchor="end" font-size="11" fill="#1c1c1e" transform="rotate(-35 362,664)">10 MiB</text><rect x="336" y="649" width="25" height="1" rx="2" fill="#0A84FF"/><line x1="348" x2="348" y1="650" y2="649" stroke="#1c1c1e80" stroke-width="1"/><rect x="364" y="649" width="25" height="1" rx="2" fill="#FF453A"/><line x1="376" x2="376" y1="650" y2="650" stroke="#1c1c1e80" stroke-width="1"/><text x="425" y="664" text-anchor="end" font-size="11" fill="#1c1c1e" transform="rotate(-35 425,664)">16 MiB</text><rect x="399" y="649" width="25" height="1" rx="2" fill="#0A84FF"/><line x1="411" x2="411" y1="650" y2="650" stroke="#1c1c1e80" stroke-width="1"/><rect x="427" y="649" width="25" height="1" rx="2" fill="#FF453A"/><line x1="439" x2="439" y1="650" y2="650" stroke="#1c1c1e80" stroke-width="1"/><line x1="84" x2="452" y1="650" y2="650" stroke="#1c1c1e" stroke-width="1.2"/><text x="40" y="542" font-size="11" fill="#6e6e73" transform="rotate(-90 40,542)">req/s</text><text x="708" y="416" text-anchor="middle" font-size="14" font-weight="600">concurrency = 16</text><line x1="548" x2="916" y1="650" y2="650" stroke="#e5e5ea" stroke-width="1"/><text x="542" y="654" text-anchor="end" font-size="11" fill="#6e6e73">0</text><line x1="548" x2="916" y1="607" y2="607" stroke="#e5e5ea" stroke-width="1"/><text x="542" y="611" text-anchor="end" font-size="11" fill="#6e6e73">30k</text><line x1="548" x2="916" y1="564" y2="564" stroke="#e5e5ea" stroke-width="1"/><text x="542" y="568" text-anchor="end" font-size="11" fill="#6e6e73">60k</text><line x1="548" x2="916" y1="521" y2="521" stroke="#e5e5ea" stroke-width="1"/><text x="542" y="525" text-anchor="end" font-size="11" fill="#6e6e73">90k</text><line x1="548" x2="916" y1="478" y2="478" stroke="#e5e5ea" stroke-width="1"/><text x="542" y="482" text-anchor="end" font-size="11" fill="#6e6e73">120k</text><line x1="548" x2="916" y1="434" y2="434" stroke="#e5e5ea" stroke-width="1"/><text x="542" y="438" text-anchor="end" font-size="11" fill="#6e6e73">150k</text><text x="574" y="664" text-anchor="end" font-size="11" fill="#1c1c1e" transform="rotate(-35 574,664)">4 KiB</text><rect x="548" y="480" width="25" height="170" rx="2" fill="#0A84FF"/><line x1="560" x2="560" y1="495" y2="478" stroke="#1c1c1e80" stroke-width="1"/><rect x="576" y="642" width="25" height="8" rx="2" fill="#FF453A"/><line x1="588" x2="588" y1="642" y2="642" stroke="#1c1c1e80" stroke-width="1"/><text x="637" y="664" text-anchor="end" font-size="11" fill="#1c1c1e" transform="rotate(-35 637,664)">64 KiB</text><rect x="611" y="540" width="25" height="110" rx="2" fill="#0A84FF"/><line x1="623" x2="623" y1="541" y2="535" stroke="#1c1c1e80" stroke-width="1"/><rect x="639" y="642" width="25" height="8" rx="2" fill="#FF453A"/><line x1="651" x2="651" y1="642" y2="642" stroke="#1c1c1e80" stroke-width="1"/><text x="700" y="664" text-anchor="end" font-size="11" fill="#1c1c1e" transform="rotate(-35 700,664)">256 KiB</text><rect x="674" y="610" width="25" height="40" rx="2" fill="#0A84FF"/><line x1="686" x2="686" y1="611" y2="610" stroke="#1c1c1e80" stroke-width="1"/><rect x="702" y="642" width="25" height="8" rx="2" fill="#FF453A"/><line x1="714" x2="714" y1="643" y2="642" stroke="#1c1c1e80" stroke-width="1"/><text x="763" y="664" text-anchor="end" font-size="11" fill="#1c1c1e" transform="rotate(-35 763,664)">4 MiB</text><rect x="737" y="648" width="25" height="2" rx="2" fill="#0A84FF"/><line x1="749" x2="749" y1="648" y2="648" stroke="#1c1c1e80" stroke-width="1"/><rect x="765" y="648" width="25" height="2" rx="2" fill="#FF453A"/><line x1="777" x2="777" y1="648" y2="648" stroke="#1c1c1e80" stroke-width="1"/><text x="826" y="664" text-anchor="end" font-size="11" fill="#1c1c1e" transform="rotate(-35 826,664)">10 MiB</text><rect x="800" y="649" width="25" height="1" rx="2" fill="#0A84FF"/><line x1="812" x2="812" y1="650" y2="649" stroke="#1c1c1e80" stroke-width="1"/><rect x="828" y="649" width="25" height="1" rx="2" fill="#FF453A"/><line x1="840" x2="840" y1="650" y2="650" stroke="#1c1c1e80" stroke-width="1"/><text x="889" y="664" text-anchor="end" font-size="11" fill="#1c1c1e" transform="rotate(-35 889,664)">16 MiB</text><rect x="863" y="649" width="25" height="1" rx="2" fill="#0A84FF"/><line x1="875" x2="875" y1="650" y2="650" stroke="#1c1c1e80" stroke-width="1"/><rect x="891" y="649" width="25" height="1" rx="2" fill="#FF453A"/><line x1="903" x2="903" y1="650" y2="650" stroke="#1c1c1e80" stroke-width="1"/><line x1="548" x2="916" y1="650" y2="650" stroke="#1c1c1e" stroke-width="1.2"/><text x="504" y="542" font-size="11" fill="#6e6e73" transform="rotate(-90 504,542)">req/s</text><text x="244" y="732" text-anchor="middle" font-size="14" font-weight="600">concurrency = 32</text><line x1="84" x2="452" y1="966" y2="966" stroke="#e5e5ea" stroke-width="1"/><text x="78" y="970" text-anchor="end" font-size="11" fill="#6e6e73">0</text><line x1="84" x2="452" y1="923" y2="923" stroke="#e5e5ea" stroke-width="1"/><text x="78" y="927" text-anchor="end" font-size="11" fill="#6e6e73">30k</text><line x1="84" x2="452" y1="880" y2="880" stroke="#e5e5ea" stroke-width="1"/><text x="78" y="884" text-anchor="end" font-size="11" fill="#6e6e73">60k</text><line x1="84" x2="452" y1="837" y2="837" stroke="#e5e5ea" stroke-width="1"/><text x="78" y="841" text-anchor="end" font-size="11" fill="#6e6e73">90k</text><line x1="84" x2="452" y1="794" y2="794" stroke="#e5e5ea" stroke-width="1"/><text x="78" y="798" text-anchor="end" font-size="11" fill="#6e6e73">120k</text><line x1="84" x2="452" y1="750" y2="750" stroke="#e5e5ea" stroke-width="1"/><text x="78" y="754" text-anchor="end" font-size="11" fill="#6e6e73">150k</text><text x="110" y="980" text-anchor="end" font-size="11" fill="#1c1c1e" transform="rotate(-35 110,980)">4 KiB</text><rect x="84" y="795" width="25" height="171" rx="2" fill="#0A84FF"/><line x1="96" x2="96" y1="797" y2="794" stroke="#1c1c1e80" stroke-width="1"/><rect x="112" y="956" width="25" height="10" rx="2" fill="#FF453A"/><line x1="124" x2="124" y1="956" y2="956" stroke="#1c1c1e80" stroke-width="1"/><text x="173" y="980" text-anchor="end" font-size="11" fill="#1c1c1e" transform="rotate(-35 173,980)">64 KiB</text><rect x="147" y="860" width="25" height="106" rx="2" fill="#0A84FF"/><line x1="159" x2="159" y1="862" y2="857" stroke="#1c1c1e80" stroke-width="1"/><rect x="175" y="958" width="25" height="8" rx="2" fill="#FF453A"/><line x1="187" x2="187" y1="958" y2="957" stroke="#1c1c1e80" stroke-width="1"/><text x="236" y="980" text-anchor="end" font-size="11" fill="#1c1c1e" transform="rotate(-35 236,980)">256 KiB</text><rect x="210" y="932" width="25" height="34" rx="2" fill="#0A84FF"/><line x1="222" x2="222" y1="932" y2="931" stroke="#1c1c1e80" stroke-width="1"/><rect x="238" y="958" width="25" height="8" rx="2" fill="#FF453A"/><line x1="250" x2="250" y1="958" y2="958" stroke="#1c1c1e80" stroke-width="1"/><text x="299" y="980" text-anchor="end" font-size="11" fill="#1c1c1e" transform="rotate(-35 299,980)">4 MiB</text><rect x="273" y="964" width="25" height="2" rx="2" fill="#0A84FF"/><line x1="285" x2="285" y1="964" y2="964" stroke="#1c1c1e80" stroke-width="1"/><rect x="301" y="964" width="25" height="2" rx="2" fill="#FF453A"/><line x1="313" x2="313" y1="964" y2="964" stroke="#1c1c1e80" stroke-width="1"/><text x="362" y="980" text-anchor="end" font-size="11" fill="#1c1c1e" transform="rotate(-35 362,980)">10 MiB</text><rect x="336" y="965" width="25" height="1" rx="2" fill="#0A84FF"/><line x1="348" x2="348" y1="966" y2="966" stroke="#1c1c1e80" stroke-width="1"/><rect x="364" y="965" width="25" height="1" rx="2" fill="#FF453A"/><line x1="376" x2="376" y1="966" y2="966" stroke="#1c1c1e80" stroke-width="1"/><text x="425" y="980" text-anchor="end" font-size="11" fill="#1c1c1e" transform="rotate(-35 425,980)">16 MiB</text><rect x="399" y="965" width="25" height="1" rx="2" fill="#0A84FF"/><line x1="411" x2="411" y1="966" y2="966" stroke="#1c1c1e80" stroke-width="1"/><rect x="427" y="965" width="25" height="1" rx="2" fill="#FF453A"/><line x1="439" x2="439" y1="966" y2="966" stroke="#1c1c1e80" stroke-width="1"/><line x1="84" x2="452" y1="966" y2="966" stroke="#1c1c1e" stroke-width="1.2"/><text x="40" y="858" font-size="11" fill="#6e6e73" transform="rotate(-90 40,858)">req/s</text><rect x="24" y="1050" width="14" height="14" rx="3" fill="#0A84FF"/><text x="44" y="1061" font-size="13">pulsys</text><rect x="174" y="1050" width="14" height="14" rx="3" fill="#FF453A"/><text x="194" y="1061" font-size="13">dingospeed</text><text x="928" y="1070" text-anchor="end" font-size="11" fill="#6e6e73">scripts/bench_matrix.sh  ·  scripts/render_bench_matrix.go</text></svg>