<svg xmlns="http://www.w3.org/2000/svg" viewBox="0 0 952 1082" font-family="-apple-system, BlinkMacSystemFont, 'SF Pro Text', sans-serif" font-size="13" fill="#1c1c1e"><rect width="952" height="1082" fill="#ffffff"/><text x="24" y="40" font-size="22" font-weight="700">Warm-cache throughput, GB/s  ·  pulsys vs DingoSpeed</text><text x="24" y="64" font-size="13" fill="#6e6e73">localhost loopback · wrk · payloads ≤16 MiB · bar = median GB/s · whisker = min/max</text><text x="24" y="84" font-size="12" fill="#6e6e73">Higher is better.  pulsys bars are blue.  64m+ in bench_summary.md only.</text><text x="244" y="100" text-anchor="middle" font-size="14" font-weight="600">concurrency = 1</text><line x1="80" x2="452" y1="334" y2="334" stroke="#e5e5ea" stroke-width="1"/><text x="74" y="338" text-anchor="end" font-size="11" fill="#6e6e73">0.00</text><line x1="80" x2="452" y1="291" y2="291" stroke="#e5e5ea" stroke-width="1"/><text x="74" y="295" text-anchor="end" font-size="11" fill="#6e6e73">2.00</text><line x1="80" x2="452" y1="248" y2="248" stroke="#e5e5ea" stroke-width="1"/><text x="74" y="252" text-anchor="end" font-size="11" fill="#6e6e73">4.00</text><line x1="80" x2="452" y1="205" y2="205" stroke="#e5e5ea" stroke-width="1"/><text x="74" y="209" text-anchor="end" font-size="11" fill="#6e6e73">6.00</text><line x1="80" x2="452" y1="162" y2="162" stroke="#e5e5ea" stroke-width="1"/><text x="74" y="166" text-anchor="end" font-size="11" fill="#6e6e73">8.00</text><line x1="80" x2="452" y1="118" y2="118" stroke="#e5e5ea" stroke-width="1"/><text x="74" y="122" text-anchor="end" font-size="11" fill="#6e6e73">10.00</text><text x="106" y="348" text-anchor="end" font-size="11" fill="#1c1c1e" transform="rotate(-35 106,348)">4 KiB</text><rect x="80" y="330" width="25" height="4" rx="2" fill="#0A84FF"/><line x1="92" x2="92" y1="330" y2="330" stroke="#1c1c1e80" stroke-width="1"/><rect x="108" y="333" width="25" height="1" rx="2" fill="#FF453A"/><line x1="120" x2="120" y1="334" y2="334" stroke="#1c1c1e80" stroke-width="1"/><text x="169" y="348" text-anchor="end" font-size="11" fill="#1c1c1e" transform="rotate(-35 169,348)">64 KiB</text><rect x="143" y="299" width="25" height="35" rx="2" fill="#0A84FF"/><line x1="155" x2="155" y1="299" y2="298" stroke="#1c1c1e80" stroke-width="1"/><rect x="171" y="333" width="25" height="1" rx="2" fill="#FF453A"/><line x1="183" x2="183" y1="334" y2="334" stroke="#1c1c1e80" stroke-width="1"/><text x="232" y="348" text-anchor="end" font-size="11" fill="#1c1c1e" transform="rotate(-35 232,348)">256 KiB</text><rect x="206" y="265" width="25" height="69" rx="2" fill="#0A84FF"/><line x1="218" x2="218" y1="266" y2="263" stroke="#1c1c1e80" stroke-width="1"/><rect x="234" y="331" width="25" height="3" rx="2" fill="#FF453A"/><line x1="246" x2="246" y1="331" y2="331" stroke="#1c1c1e80" stroke-width="1"/><text x="295" y="348" text-anchor="end" font-size="11" fill="#1c1c1e" transform="rotate(-35 295,348)">4 MiB</text><rect x="269" y="214" width="25" height="120" rx="2" fill="#0A84FF"/><line x1="281" x2="281" y1="222" y2="207" stroke="#1c1c1e80" stroke-width="1"/><rect x="297" y="289" width="25" height="45" rx="2" fill="#FF453A"/><line x1="309" x2="309" y1="291" y2="287" stroke="#1c1c1e80" stroke-width="1"/><text x="358" y="348" text-anchor="end" font-size="11" fill="#1c1c1e" transform="rotate(-35 358,348)">10 MiB</text><rect x="332" y="206" width="25" height="128" rx="2" fill="#0A84FF"/><line x1="344" x2="344" y1="212" y2="204" stroke="#1c1c1e80" stroke-width="1"/><rect x="360" y="280" width="25" height="54" rx="2" fill="#FF453A"/><line x1="372" x2="372" y1="282" y2="279" stroke="#1c1c1e80" stroke-width="1"/><text x="421" y="348" text-anchor="end" font-size="11" fill="#1c1c1e" transform="rotate(-35 421,348)">16 MiB</text><rect x="395" y="214" width="25" height="120" rx="2" fill="#0A84FF"/><line x1="407" x2="407" y1="219" y2="207" stroke="#1c1c1e80" stroke-width="1"/><rect x="423" y="268" width="25" height="66" rx="2" fill="#FF453A"/><line x1="435" x2="435" y1="269" y2="266" stroke="#1c1c1e80" stroke-width="1"/><line x1="80" x2="452" y1="334" y2="334" stroke="#1c1c1e" stroke-width="1.2"/><text x="40" y="226" font-size="11" fill="#6e6e73" transform="rotate(-90 40,226)">GB/s</text><text x="708" y="100" text-anchor="middle" font-size="14" font-weight="600">concurrency = 4</text><line x1="544" x2="916" y1="334" y2="334" stroke="#e5e5ea" stroke-width="1"/><text x="538" y="338" text-anchor="end" font-size="11" fill="#6e6e73">0.00</text><line x1="544" x2="916" y1="291" y2="291" stroke="#e5e5ea" stroke-width="1"/><text x="538" y="295" text-anchor="end" font-size="11" fill="#6e6e73">2.00</text><line x1="544" x2="916" y1="248" y2="248" stroke="#e5e5ea" stroke-width="1"/><text x="538" y="252" text-anchor="end" font-size="11" fill="#6e6e73">4.00</text><line x1="544" x2="916" y1="205" y2="205" stroke="#e5e5ea" stroke-width="1"/><text x="538" y="209" text-anchor="end" font-size="11" fill="#6e6e73">6.00</text><line x1="544" x2="916" y1="162" y2="162" stroke="#e5e5ea" stroke-width="1"/><text x="538" y="166" text-anchor="end" font-size="11" fill="#6e6e73">8.00</text><line x1="544" x2="916" y1="118" y2="118" stroke="#e5e5ea" stroke-width="1"/><text x="538" y="122" text-anchor="end" font-size="11" fill="#6e6e73">10.00</text><text x="570" y="348" text-anchor="end" font-size="11" fill="#1c1c1e" transform="rotate(-35 570,348)">4 KiB</text><rect x="544" y="324" width="25" height="10" rx="2" fill="#0A84FF"/><line x1="556" x2="556" y1="324" y2="324" stroke="#1c1c1e80" stroke-width="1"/><rect x="572" y="333" width="25" height="1" rx="2" fill="#FF453A"/><line x1="584" x2="584" y1="334" y2="334" stroke="#1c1c1e80" stroke-width="1"/><text x="633" y="348" text-anchor="end" font-size="11" fill="#1c1c1e" transform="rotate(-35 633,348)">64 KiB</text><rect x="607" y="247" width="25" height="87" rx="2" fill="#0A84FF"/><line x1="619" x2="619" y1="254" y2="246" stroke="#1c1c1e80" stroke-width="1"/><rect x="635" y="331" width="25" height="3" rx="2" fill="#FF453A"/><line x1="647" x2="647" y1="331" y2="331" stroke="#1c1c1e80" stroke-width="1"/><text x="696" y="348" text-anchor="end" font-size="11" fill="#1c1c1e" transform="rotate(-35 696,348)">256 KiB</text><rect x="670" y="182" width="25" height="152" rx="2" fill="#0A84FF"/><line x1="682" x2="682" y1="182" y2="163" stroke="#1c1c1e80" stroke-width="1"/><rect x="698" y="318" width="25" height="16" rx="2" fill="#FF453A"/><line x1="710" x2="710" y1="319" y2="318" stroke="#1c1c1e80" stroke-width="1"/><text x="759" y="348" text-anchor="end" font-size="11" fill="#1c1c1e" transform="rotate(-35 759,348)">4 MiB</text><rect x="733" y="151" width="25" height="183" rx="2" fill="#0A84FF"/><line x1="745" x2="745" y1="159" y2="146" stroke="#1c1c1e80" stroke-width="1"/><rect x="761" y="212" width="25" height="122" rx="2" fill="#FF453A"/><line x1="773" x2="773" y1="217" y2="210" stroke="#1c1c1e80" stroke-width="1"/><text x="822" y="348" text-anchor="end" font-size="11" fill="#1c1c1e" transform="rotate(-35 822,348)">10 MiB</text><rect x="796" y="150" width="25" height="184" rx="2" fill="#0A84FF"/><line x1="808" x2="808" y1="151" y2="149" stroke="#1c1c1e80" stroke-width="1"/><rect x="824" y="210" width="25" height="124" rx="2" fill="#FF453A"/><line x1="836" x2="836" y1="212" y2="209" stroke="#1c1c1e80" stroke-width="1"/><text x="885" y="348" text-anchor="end" font-size="11" fill="#1c1c1e" transform="rotate(-35 885,348)">16 MiB</text><rect x="859" y="150" width="25" height="184" rx="2" fill="#0A84FF"/><line x1="871" x2="871" y1="150" y2="146" stroke="#1c1c1e80" stroke-width="1"/><rect x="887" y="201" width="25" height="133" rx="2" fill="#FF453A"/><line x1="899" x2="899" y1="203" y2="199" stroke="#1c1c1e80" stroke-width="1"/><line x1="544" x2="916" y1="334" y2="334" stroke="#1c1c1e" stroke-width="1.2"/><text x="504" y="226" font-size="11" fill="#6e6e73" transform="rotate(-90 504,226)">GB/s</text><text x="244" y="416" text-anchor="middle" font-size="14" font-weight="600">concurrency = 8</text><line x1="80" x2="452" y1="650" y2="650" stroke="#e5e5ea" stroke-width="1"/><text x="74" y="654" text-anchor="end" font-size="11" fill="#6e6e73">0.00</text><line x1="80" x2="452" y1="607" y2="607" stroke="#e5e5ea" stroke-width="1"/><text x="74" y="611" text-anchor="end" font-size="11" fill="#6e6e73">2.00</text><line x1="80" x2="452" y1="564" y2="564" stroke="#e5e5ea" stroke-width="1"/><text x="74" y="568" text-anchor="end" font-size="11" fill="#6e6e73">4.00</text><line x1="80" x2="452" y1="521" y2="521" stroke="#e5e5ea" stroke-width="1"/><text x="74" y="525" text-anchor="end" font-size="11" fill="#6e6e73">6.00</text><line x1="80" x2="452" y1="478" y2="478" stroke="#e5e5ea" stroke-width="1"/><text x="74" y="482" text-anchor="end" font-size="11" fill="#6e6e73">8.00</text><line x1="80" x2="452" y1="434" y2="434" stroke="#e5e5ea" stroke-width="1"/><text x="74" y="438" text-anchor="end" font-size="11" fill="#6e6e73">10.00</text><text x="106" y="664" text-anchor="end" font-size="11" fill="#1c1c1e" transform="rotate(-35 106,664)">4 KiB</text><rect x="80" y="640" width="25" height="10" rx="2" fill="#0A84FF"/><line x1="92" x2="92" y1="640" y2="640" stroke="#1c1c1e80" stroke-width="1"/><rect x="108" y="649" width="25" height="1" rx="2" fill="#FF453A"/><line x1="120" x2="120" y1="650" y2="650" stroke="#1c1c1e80" stroke-width="1"/><text x="169" y="664" text-anchor="end" font-size="11" fill="#1c1c1e" transform="rotate(-35 169,664)">64 KiB</text><rect x="143" y="553" width="25" height="97" rx="2" fill="#0A84FF"/><line x1="155" x2="155" y1="557" y2="552" stroke="#1c1c1e80" stroke-width="1"/><rect x="171" y="645" width="25" height="5" rx="2" fill="#FF453A"/><line x1="183" x2="183" y1="645" y2="645" stroke="#1c1c1e80" stroke-width="1"/><text x="232" y="664" text-anchor="end" font-size="11" fill="#1c1c1e" transform="rotate(-35 232,664)">256 KiB</text><rect x="206" y="479" width="25" height="171" rx="2" fill="#0A84FF"/><line x1="218" x2="218" y1="487" y2="476" stroke="#1c1c1e80" stroke-width="1"/><rect x="234" y="629" width="25" height="21" rx="2" fill="#FF453A"/><line x1="246" x2="246" y1="630" y2="629" stroke="#1c1c1e80" stroke-width="1"/><text x="295" y="664" text-anchor="end" font-size="11" fill="#1c1c1e" transform="rotate(-35 295,664)">4 MiB</text><rect x="269" y="505" width="25" height="145" rx="2" fill="#0A84FF"/><line x1="281" x2="281" y1="506" y2="501" stroke="#1c1c1e80" stroke-width="1"/><rect x="297" y="533" width="25" height="117" rx="2" fill="#FF453A"/><line x1="309" x2="309" y1="534" y2="530" stroke="#1c1c1e80" stroke-width="1"/><text x="358" y="664" text-anchor="end" font-size="11" fill="#1c1c1e" transform="rotate(-35 358,664)">10 MiB</text><rect x="332" y="501" width="25" height="149" rx="2" fill="#0A84FF"/><line x1="344" x2="344" y1="505" y2="501" stroke="#1c1c1e80" stroke-width="1"/><rect x="360" y="527" width="25" height="123" rx="2" fill="#FF453A"/><line x1="372" x2="372" y1="529" y2="525" stroke="#1c1c1e80" stroke-width="1"/><text x="421" y="664" text-anchor="end" font-size="11" fill="#1c1c1e" transform="rotate(-35 421,664)">16 MiB</text><rect x="395" y="508" width="25" height="142" rx="2" fill="#0A84FF"/><line x1="407" x2="407" y1="511" y2="507" stroke="#1c1c1e80" stroke-width="1"/><rect x="423" y="525" width="25" height="125" rx="2" fill="#FF453A"/><line x1="435" x2="435" y1="526" y2="524" stroke="#1c1c1e80" stroke-width="1"/><line x1="80" x2="452" y1="650" y2="650" stroke="#1c1c1e" stroke-width="1.2"/><text x="40" y="542" font-size="11" fill="#6e6e73" transform="rotate(-90 40,542)">GB/s</text><text x="708" y="416" text-anchor="middle" font-size="14" font-weight="600">concurrency = 16</text><line x1="544" x2="916" y1="650" y2="650" stroke="#e5e5ea" stroke-width="1"/><text x="538" y="654" text-anchor="end" font-size="11" fill="#6e6e73">0.00</text><line x1="544" x2="916" y1="607" y2="607" stroke="#e5e5ea" stroke-width="1"/><text x="538" y="611" text-anchor="end" font-size="11" fill="#6e6e73">2.00</text><line x1="544" x2="916" y1="564" y2="564" stroke="#e5e5ea" stroke-width="1"/><text x="538" y="568" text-anchor="end" font-size="11" fill="#6e6e73">4.00</text><line x1="544" x2="916" y1="521" y2="521" stroke="#e5e5ea" stroke-width="1"/><text x="538" y="525" text-anchor="end" font-size="11" fill="#6e6e73">6.00</text><line x1="544" x2="916" y1="478" y2="478" stroke="#e5e5ea" stroke-width="1"/><text x="538" y="482" text-anchor="end" font-size="11" fill="#6e6e73">8.00</text><line x1="544" x2="916" y1="434" y2="434" stroke="#e5e5ea" stroke-width="1"/><text x="538" y="438" text-anchor="end" font-size="11" fill="#6e6e73">10.00</text><text x="570" y="664" text-anchor="end" font-size="11" fill="#1c1c1e" transform="rotate(-35 570,664)">4 KiB</text><rect x="544" y="640" width="25" height="10" rx="2" fill="#0A84FF"/><line x1="556" x2="556" y1="641" y2="640" stroke="#1c1c1e80" stroke-width="1"/><rect x="572" y="649" width="25" height="1" rx="2" fill="#FF453A"/><line x1="584" x2="584" y1="650" y2="650" stroke="#1c1c1e80" stroke-width="1"/><text x="633" y="664" text-anchor="end" font-size="11" fill="#1c1c1e" transform="rotate(-35 633,664)">64 KiB</text><rect x="607" y="549" width="25" height="101" rx="2" fill="#0A84FF"/><line x1="619" x2="619" y1="550" y2="544" stroke="#1c1c1e80" stroke-width="1"/><rect x="635" y="643" width="25" height="7" rx="2" fill="#FF453A"/><line x1="647" x2="647" y1="643" y2="643" stroke="#1c1c1e80" stroke-width="1"/><text x="696" y="664" text-anchor="end" font-size="11" fill="#1c1c1e" transform="rotate(-35 696,664)">256 KiB</text><rect x="670" y="503" width="25" height="147" rx="2" fill="#0A84FF"/><line x1="682" x2="682" y1="506" y2="502" stroke="#1c1c1e80" stroke-width="1"/><rect x="698" y="621" width="25" height="29" rx="2" fill="#FF453A"/><line x1="710" x2="710" y1="622" y2="619" stroke="#1c1c1e80" stroke-width="1"/><text x="759" y="664" text-anchor="end" font-size="11" fill="#1c1c1e" transform="rotate(-35 759,664)">4 MiB</text><rect x="733" y="508" width="25" height="142" rx="2" fill="#0A84FF"/><line x1="745" x2="745" y1="512" y2="507" stroke="#1c1c1e80" stroke-width="1"/><rect x="761" y="525" width="25" height="125" rx="2" fill="#FF453A"/><line x1="773" x2="773" y1="531" y2="521" stroke="#1c1c1e80" stroke-width="1"/><text x="822" y="664" text-anchor="end" font-size="11" fill="#1c1c1e" transform="rotate(-35 822,664)">10 MiB</text><rect x="796" y="507" width="25" height="143" rx="2" fill="#0A84FF"/><line x1="808" x2="808" y1="508" y2="503" stroke="#1c1c1e80" stroke-width="1"/><rect x="824" y="522" width="25" height="128" rx="2" fill="#FF453A"/><line x1="836" x2="836" y1="524" y2="522" stroke="#1c1c1e80" stroke-width="1"/><text x="885" y="664" text-anchor="end" font-size="11" fill="#1c1c1e" transform="rotate(-35 885,664)">16 MiB</text><rect x="859" y="511" width="25" height="139" rx="2" fill="#0A84FF"/><line x1="871" x2="871" y1="513" y2="509" stroke="#1c1c1e80" stroke-width="1"/><rect x="887" y="521" width="25" height="129" rx="2" fill="#FF453A"/><line x1="899" x2="899" y1="523" y2="521" stroke="#1c1c1e80" stroke-width="1"/><line x1="544" x2="916" y1="650" y2="650" stroke="#1c1c1e" stroke-width="1.2"/><text x="504" y="542" font-size="11" fill="#6e6e73" transform="rotate(-90 504,542)">GB/s</text><text x="244" y="732" text-anchor="middle" font-size="14" font-weight="600">concurrency = 32</text><line x1="80" x2="452" y1="966" y2="966" stroke="#e5e5ea" stroke-width="1"/><text x="74" y="970" text-anchor="end" font-size="11" fill="#6e6e73">0.00</text><line x1="80" x2="452" y1="923" y2="923" stroke="#e5e5ea" stroke-width="1"/><text x="74" y="927" text-anchor="end" font-size="11" fill="#6e6e73">2.00</text><line x1="80" x2="452" y1="880" y2="880" stroke="#e5e5ea" stroke-width="1"/><text x="74" y="884" text-anchor="end" font-size="11" fill="#6e6e73">4.00</text><line x1="80" x2="452" y1="837" y2="837" stroke="#e5e5ea" stroke-width="1"/><text x="74" y="841" text-anchor="end" font-size="11" fill="#6e6e73">6.00</text><line x1="80" x2="452" y1="794" y2="794" stroke="#e5e5ea" stroke-width="1"/><text x="74" y="798" text-anchor="end" font-size="11" fill="#6e6e73">8.00</text><line x1="80" x2="452" y1="750" y2="750" stroke="#e5e5ea" stroke-width="1"/><text x="74" y="754" text-anchor="end" font-size="11" fill="#6e6e73">10.00</text><text x="106" y="980" text-anchor="end" font-size="11" fill="#1c1c1e" transform="rotate(-35 106,980)">4 KiB</text><rect x="80" y="956" width="25" height="10" rx="2" fill="#0A84FF"/><line x1="92" x2="92" y1="956" y2="956" stroke="#1c1c1e80" stroke-width="1"/><rect x="108" y="965" width="25" height="1" rx="2" fill="#FF453A"/><line x1="120" x2="120" y1="966" y2="966" stroke="#1c1c1e80" stroke-width="1"/><text x="169" y="980" text-anchor="end" font-size="11" fill="#1c1c1e" transform="rotate(-35 169,980)">64 KiB</text><rect x="143" y="869" width="25" height="97" rx="2" fill="#0A84FF"/><line x1="155" x2="155" y1="870" y2="866" stroke="#1c1c1e80" stroke-width="1"/><rect x="171" y="958" width="25" height="8" rx="2" fill="#FF453A"/><line x1="183" x2="183" y1="958" y2="958" stroke="#1c1c1e80" stroke-width="1"/><text x="232" y="980" text-anchor="end" font-size="11" fill="#1c1c1e" transform="rotate(-35 232,980)">256 KiB</text><rect x="206" y="839" width="25" height="127" rx="2" fill="#0A84FF"/><line x1="218" x2="218" y1="839" y2="835" stroke="#1c1c1e80" stroke-width="1"/><rect x="234" y="935" width="25" height="31" rx="2" fill="#FF453A"/><line x1="246" x2="246" y1="936" y2="934" stroke="#1c1c1e80" stroke-width="1"/><text x="295" y="980" text-anchor="end" font-size="11" fill="#1c1c1e" transform="rotate(-35 295,980)">4 MiB</text><rect x="269" y="822" width="25" height="144" rx="2" fill="#0A84FF"/><line x1="281" x2="281" y1="824" y2="816" stroke="#1c1c1e80" stroke-width="1"/><rect x="297" y="824" width="25" height="142" rx="2" fill="#FF453A"/><line x1="309" x2="309" y1="824" y2="823" stroke="#1c1c1e80" stroke-width="1"/><text x="358" y="980" text-anchor="end" font-size="11" fill="#1c1c1e" transform="rotate(-35 358,980)">10 MiB</text><rect x="332" y="823" width="25" height="143" rx="2" fill="#0A84FF"/><line x1="344" x2="344" y1="824" y2="822" stroke="#1c1c1e80" stroke-width="1"/><rect x="360" y="826" width="25" height="140" rx="2" fill="#FF453A"/><line x1="372" x2="372" y1="830" y2="826" stroke="#1c1c1e80" stroke-width="1"/><text x="421" y="980" text-anchor="end" font-size="11" fill="#1c1c1e" transform="rotate(-35 421,980)">16 MiB</text><rect x="395" y="826" width="25" height="140" rx="2" fill="#0A84FF"/><line x1="407" x2="407" y1="826" y2="824" stroke="#1c1c1e80" stroke-width="1"/><rect x="423" y="832" width="25" height="134" rx="2" fill="#FF453A"/><line x1="435" x2="435" y1="835" y2="830" stroke="#1c1c1e80" stroke-width="1"/><line x1="80" x2="452" y1="966" y2="966" stroke="#1c1c1e" stroke-width="1.2"/><text x="40" y="858" font-size="11" fill="#6e6e73" transform="rotate(-90 40,858)">GB/s</text><rect x="24" y="1050" width="14" height="14" rx="3" fill="#0A84FF"/><text x="44" y="1061" font-size="13">pulsys</text><rect x="174" y="1050" width="14" height="14" rx="3" fill="#FF453A"/><text x="194" y="1061" font-size="13">dingospeed</text><text x="928" y="1070" text-anchor="end" font-size="11" fill="#6e6e73">scripts/bench_matrix.sh  ·  scripts/render_bench_matrix.go</text></svg>