<svg xmlns="http://www.w3.org/2000/svg" viewBox="0 0 940 456" font-family="-apple-system, BlinkMacSystemFont, 'SF Pro Text', sans-serif" font-size="13" fill="#1c1c1e"><rect width="940" height="456" fill="#ffffff"/><text x="24" y="40" font-size="22" font-weight="700">Saturate p99 latency</text><text x="24" y="64" font-size="13" fill="#6e6e73">loopback · wrk c=192 · 48 vCPU · bar=median · whisker=min/max</text><text x="24" y="84" font-size="12" fill="#6e6e73">Lower is better.</text><line x1="72" x2="904" y1="360" y2="360" stroke="#e5e5ea" stroke-width="1"/><text x="66" y="364" text-anchor="end" font-size="11" fill="#6e6e73">0</text><line x1="72" x2="904" y1="308" y2="308" stroke="#e5e5ea" stroke-width="1"/><text x="66" y="312" text-anchor="end" font-size="11" fill="#6e6e73">20ms</text><line x1="72" x2="904" y1="256" y2="256" stroke="#e5e5ea" stroke-width="1"/><text x="66" y="260" text-anchor="end" font-size="11" fill="#6e6e73">40ms</text><line x1="72" x2="904" y1="204" y2="204" stroke="#e5e5ea" stroke-width="1"/><text x="66" y="208" text-anchor="end" font-size="11" fill="#6e6e73">60ms</text><line x1="72" x2="904" y1="152" y2="152" stroke="#e5e5ea" stroke-width="1"/><text x="66" y="156" text-anchor="end" font-size="11" fill="#6e6e73">80ms</text><line x1="72" x2="904" y1="100" y2="100" stroke="#e5e5ea" stroke-width="1"/><text x="66" y="104" text-anchor="end" font-size="11" fill="#6e6e73">100ms</text><rect x="93" y="357" width="81" height="3" rx="2" fill="#0A84FF"/><line x1="133" x2="133" y1="357" y2="357" stroke="#1c1c1e80" stroke-width="1"/><rect x="176" y="343" width="81" height="17" rx="2" fill="#FF9F0A"/><line x1="216" x2="216" y1="347" y2="342" stroke="#1c1c1e80" stroke-width="1"/><text x="176" y="374" text-anchor="end" font-size="11" transform="rotate(-35 176,374)">4 KiB</text><rect x="301" y="350" width="81" height="10" rx="2" fill="#0A84FF"/><line x1="341" x2="341" y1="351" y2="350" stroke="#1c1c1e80" stroke-width="1"/><rect x="384" y="355" width="81" height="5" rx="2" fill="#FF9F0A"/><line x1="424" x2="424" y1="355" y2="354" stroke="#1c1c1e80" stroke-width="1"/><text x="384" y="374" text-anchor="end" font-size="11" transform="rotate(-35 384,374)">256 KiB</text><rect x="509" y="298" width="81" height="62" rx="2" fill="#0A84FF"/><line x1="549" x2="549" y1="301" y2="296" stroke="#1c1c1e80" stroke-width="1"/><rect x="592" y="300" width="81" height="60" rx="2" fill="#FF9F0A"/><line x1="632" x2="632" y1="303" y2="297" stroke="#1c1c1e80" stroke-width="1"/><text x="592" y="374" text-anchor="end" font-size="11" transform="rotate(-35 592,374)">4 MiB</text><rect x="717" y="150" width="81" height="210" rx="2" fill="#0A84FF"/><line x1="757" x2="757" y1="153" y2="149" stroke="#1c1c1e80" stroke-width="1"/><rect x="800" y="147" width="81" height="213" rx="2" fill="#FF9F0A"/><line x1="840" x2="840" y1="154" y2="143" stroke="#1c1c1e80" stroke-width="1"/><text x="800" y="374" text-anchor="end" font-size="11" transform="rotate(-35 800,374)">16 MiB</text><line x1="72" x2="904" y1="360" y2="360" stroke="#1c1c1e" stroke-width="1.2"/><text x="20" y="230" font-size="11" fill="#6e6e73" transform="rotate(-90 20,230)">p99</text><rect x="24" y="424" width="14" height="14" rx="3" fill="#0A84FF"/><text x="44" y="435" font-size="13">saturate (io_uring)</text><rect x="212" y="424" width="14" height="14" rx="3" fill="#FF9F0A"/><text x="232" y="435" font-size="13">saturate (cork off)</text><text x="916" y="444" text-anchor="end" font-size="11" fill="#6e6e73">render_saturate_charts.go</text></svg>