<svg xmlns="http://www.w3.org/2000/svg" viewBox="0 0 820 440" font-family="-apple-system, BlinkMacSystemFont, 'SF Pro Text', sans-serif" font-size="13" fill="#1c1c1e"><rect width="820" height="440" fill="#ffffff"/><text x="24" y="40" font-size="22" font-weight="700">Saturate request rate, req/s</text><text x="24" y="64" font-size="13" fill="#6e6e73">Linux EC2 c7i.12xlarge · loopback · wrk c=192 · 48 vCPU · bar=median · whisker=min/max</text><text x="24" y="84" font-size="12" fill="#6e6e73">Higher is better.</text><line x1="72" x2="784" y1="344" y2="344" stroke="#e5e5ea" stroke-width="1"/><text x="66" y="348" text-anchor="end" font-size="11" fill="#6e6e73">0</text><line x1="72" x2="784" y1="296" y2="296" stroke="#e5e5ea" stroke-width="1"/><text x="66" y="300" text-anchor="end" font-size="11" fill="#6e6e73">300k</text><line x1="72" x2="784" y1="247" y2="247" stroke="#e5e5ea" stroke-width="1"/><text x="66" y="251" text-anchor="end" font-size="11" fill="#6e6e73">600k</text><line x1="72" x2="784" y1="198" y2="198" stroke="#e5e5ea" stroke-width="1"/><text x="66" y="202" text-anchor="end" font-size="11" fill="#6e6e73">900k</text><line x1="72" x2="784" y1="149" y2="149" stroke="#e5e5ea" stroke-width="1"/><text x="66" y="153" text-anchor="end" font-size="11" fill="#6e6e73">1.2M</text><line x1="72" x2="784" y1="100" y2="100" stroke="#e5e5ea" stroke-width="1"/><text x="66" y="104" text-anchor="end" font-size="11" fill="#6e6e73">1.5M</text><rect x="90" y="123" width="140" height="221" rx="2" fill="#0A84FF"/><line x1="160" x2="160" y1="131" y2="123" stroke="#1c1c1e80" stroke-width="1"/><text x="160" y="117" text-anchor="middle" font-size="11" font-weight="600" fill="#1c1c1e">1.4M</text><text x="161" y="358" text-anchor="end" font-size="11" transform="rotate(-35 161,358)">4 KiB</text><rect x="268" y="301" width="140" height="43" rx="2" fill="#0A84FF"/><line x1="338" x2="338" y1="304" y2="301" stroke="#1c1c1e80" stroke-width="1"/><text x="338" y="295" text-anchor="middle" font-size="11" font-weight="600" fill="#1c1c1e">267k</text><text x="339" y="358" text-anchor="end" font-size="11" transform="rotate(-35 339,358)">256 KiB</text><rect x="446" y="341" width="140" height="3" rx="2" fill="#0A84FF"/><line x1="516" x2="516" y1="341" y2="341" stroke="#1c1c1e80" stroke-width="1"/><text x="516" y="335" text-anchor="middle" font-size="11" font-weight="600" fill="#1c1c1e">23k</text><text x="517" y="358" text-anchor="end" font-size="11" transform="rotate(-35 517,358)">4 MiB</text><rect x="624" y="343" width="140" height="1" rx="2" fill="#0A84FF"/><line x1="694" x2="694" y1="344" y2="344" stroke="#1c1c1e80" stroke-width="1"/><text x="694" y="337" text-anchor="middle" font-size="11" font-weight="600" fill="#1c1c1e">5.7k</text><text x="695" y="358" text-anchor="end" font-size="11" transform="rotate(-35 695,358)">16 MiB</text><line x1="72" x2="784" y1="344" y2="344" stroke="#1c1c1e" stroke-width="1.2"/><text x="20" y="222" font-size="11" fill="#6e6e73" transform="rotate(-90 20,222)">req/s</text><rect x="24" y="408" width="14" height="14" rx="3" fill="#0A84FF"/><text x="44" y="419" font-size="13">saturate (io_uring)</text><text x="796" y="428" text-anchor="end" font-size="11" fill="#6e6e73">render_saturate_charts.go</text></svg>