<svg xmlns="http://www.w3.org/2000/svg" viewBox="0 0 940 456" font-family="-apple-system, BlinkMacSystemFont, 'SF Pro Text', sans-serif" font-size="13" fill="#1c1c1e"><rect width="940" height="456" fill="#ffffff"/><text x="24" y="40" font-size="22" font-weight="700">Saturate throughput, GB/s</text><text x="24" y="64" font-size="13" fill="#6e6e73">loopback · wrk c=192 · 48 vCPU · bar=median · whisker=min/max</text><text x="24" y="84" font-size="12" fill="#6e6e73">Higher is better.  wrk Transfer/sec; large payloads may show high GB/s on loopback.</text><line x1="72" x2="904" y1="360" y2="360" stroke="#e5e5ea" stroke-width="1"/><text x="66" y="364" text-anchor="end" font-size="11" fill="#6e6e73">0.0</text><line x1="72" x2="904" y1="308" y2="308" stroke="#e5e5ea" stroke-width="1"/><text x="66" y="312" text-anchor="end" font-size="11" fill="#6e6e73">30.0</text><line x1="72" x2="904" y1="256" y2="256" stroke="#e5e5ea" stroke-width="1"/><text x="66" y="260" text-anchor="end" font-size="11" fill="#6e6e73">60.0</text><line x1="72" x2="904" y1="204" y2="204" stroke="#e5e5ea" stroke-width="1"/><text x="66" y="208" text-anchor="end" font-size="11" fill="#6e6e73">90.0</text><line x1="72" x2="904" y1="152" y2="152" stroke="#e5e5ea" stroke-width="1"/><text x="66" y="156" text-anchor="end" font-size="11" fill="#6e6e73">120.0</text><line x1="72" x2="904" y1="100" y2="100" stroke="#e5e5ea" stroke-width="1"/><text x="66" y="104" text-anchor="end" font-size="11" fill="#6e6e73">150.0</text><rect x="93" y="351" width="81" height="9" rx="2" fill="#0A84FF"/><line x1="133" x2="133" y1="351" y2="351" stroke="#1c1c1e80" stroke-width="1"/><rect x="176" y="352" width="81" height="8" rx="2" fill="#FF9F0A"/><line x1="216" x2="216" y1="352" y2="352" stroke="#1c1c1e80" stroke-width="1"/><text x="176" y="374" text-anchor="end" font-size="11" transform="rotate(-35 176,374)">4 KiB</text><rect x="301" y="239" width="81" height="121" rx="2" fill="#0A84FF"/><line x1="341" x2="341" y1="255" y2="237" stroke="#1c1c1e80" stroke-width="1"/><rect x="384" y="251" width="81" height="109" rx="2" fill="#FF9F0A"/><line x1="424" x2="424" y1="251" y2="250" stroke="#1c1c1e80" stroke-width="1"/><text x="384" y="374" text-anchor="end" font-size="11" transform="rotate(-35 384,374)">256 KiB</text><rect x="509" y="203" width="81" height="157" rx="2" fill="#0A84FF"/><line x1="549" x2="549" y1="207" y2="192" stroke="#1c1c1e80" stroke-width="1"/><rect x="592" y="208" width="81" height="152" rx="2" fill="#FF9F0A"/><line x1="632" x2="632" y1="212" y2="204" stroke="#1c1c1e80" stroke-width="1"/><text x="592" y="374" text-anchor="end" font-size="11" transform="rotate(-35 592,374)">4 MiB</text><rect x="717" y="199" width="81" height="161" rx="2" fill="#0A84FF"/><line x1="757" x2="757" y1="203" y2="189" stroke="#1c1c1e80" stroke-width="1"/><rect x="800" y="202" width="81" height="158" rx="2" fill="#FF9F0A"/><line x1="840" x2="840" y1="203" y2="196" stroke="#1c1c1e80" stroke-width="1"/><text x="800" y="374" text-anchor="end" font-size="11" transform="rotate(-35 800,374)">16 MiB</text><line x1="72" x2="904" y1="360" y2="360" stroke="#1c1c1e" stroke-width="1.2"/><text x="20" y="230" font-size="11" fill="#6e6e73" transform="rotate(-90 20,230)">GB/s</text><rect x="24" y="424" width="14" height="14" rx="3" fill="#0A84FF"/><text x="44" y="435" font-size="13">saturate (io_uring)</text><rect x="212" y="424" width="14" height="14" rx="3" fill="#FF9F0A"/><text x="232" y="435" font-size="13">saturate (cork off)</text><text x="916" y="444" text-anchor="end" font-size="11" fill="#6e6e73">render_saturate_charts.go</text></svg>